<?xml version="1.0" encoding="utf-8"?>
<!-- Generator: Adobe Illustrator 15.0.0, SVG Export Plug-In . SVG Version: 6.00 Build 0)  -->
<!DOCTYPE svg PUBLIC "-//W3C//DTD SVG 1.1//EN" "http://www.w3.org/Graphics/SVG/1.1/DTD/svg11.dtd">
<svg version="1.1" id="Layer_1" xmlns="http://www.w3.org/2000/svg" xmlns:xlink="http://www.w3.org/1999/xlink" x="0px" y="0px"
	 width="203px" height="86px" viewBox="0 0 57.54 24.378" enable-background="new 0 0 57.54 24.378" xml:space="preserve">
<path fill="#FFFFFF" d="M43.398,12.467c0,0-0.371,0.027-0.371,0.371s0.26,0.401,0.355,0.401h1.293h1.434
	c0,0,0.219,0.018,0.525-0.515c0.072-0.13,0.08-0.119,0.158-0.254c0.08-0.137,0.307-0.342,0.373,0.039
	c0.053,0.294,0.254,1.704,0.254,1.704l0.152,1.027c0,0,0.092,0.288,0.4,0.288s0.322,0.071,0.471-0.483
	c0.146-0.554,0.803-3.124,0.803-3.124l0.664-2.575c0,0,0.078-0.493,0.236-0.493c0.156,0,0.156,0.293,0.189,0.486
	c0.031,0.193,0.592,6.376,0.592,6.376s0.088,0.489,0.49,0.489s0.557-0.515,0.557-0.515l1.084-1.984c0,0,0.029-0.17,0.32-0.17h2.859
	c0,0,0.338-0.073,0.338-0.437c0-0.255-0.416-0.335-0.904-0.335h-2.383c0,0-0.648,0-0.811,0.314c-0.32,0.63-0.846,1.626-0.846,1.626
	l-0.584-6.557c0,0-0.105-1.447-0.809-1.447c-0.572,0-0.813,1.399-0.813,1.399l-1.195,4.577c0,0-0.166,0.479-0.254-0.061
	c-0.057-0.343-0.285-1.87-0.285-1.87s-0.027-0.402-0.352-0.423c-0.326-0.019-0.447,0.472-0.502,0.527
	c-0.057,0.056-0.807,1.473-0.807,1.473s-0.07,0.147-0.301,0.147C45.5,12.474,43.398,12.467,43.398,12.467"/>
<path fill="#FFFFFF" d="M0.125,16.197V8.629c0-0.116,0.048-0.223,0.125-0.301h0C0.327,8.25,0.434,8.203,0.552,8.203h3.649
	c0.517,0,0.962,0.053,1.334,0.157c0.391,0.111,0.705,0.28,0.938,0.509c0.232,0.229,0.406,0.538,0.519,0.925
	c0.107,0.368,0.161,0.809,0.161,1.318v2.592c0,0.511-0.054,0.953-0.162,1.322c-0.115,0.39-0.289,0.7-0.523,0.929l0,0
	c-0.233,0.229-0.546,0.399-0.937,0.512c-0.371,0.105-0.815,0.157-1.331,0.157H0.552c-0.118,0-0.225-0.048-0.302-0.126
	C0.173,16.422,0.125,16.316,0.125,16.197 M1.548,15.293h2.511c0.356,0,0.649-0.031,0.88-0.09c0.204-0.052,0.353-0.122,0.446-0.215
	s0.165-0.237,0.216-0.434c0.058-0.22,0.086-0.5,0.086-0.839v-2.54c0-0.358-0.029-0.652-0.087-0.884
	c-0.052-0.206-0.123-0.356-0.215-0.447C5.295,9.752,5.147,9.681,4.943,9.629C4.712,9.571,4.417,9.542,4.059,9.542H1.548V15.293z
	 M7.691,16.197V8.629c0-0.117,0.048-0.224,0.125-0.301h0.002c0.077-0.078,0.184-0.125,0.3-0.125h0.58c0.116,0,0.223,0.047,0.3,0.125
	h0.001c0.077,0.077,0.125,0.184,0.125,0.301v7.568c0,0.117-0.047,0.225-0.125,0.3c-0.078,0.08-0.185,0.128-0.301,0.128h-0.58
	c-0.118,0-0.224-0.048-0.302-0.126v-0.002C7.74,16.422,7.691,16.314,7.691,16.197z M9.621,11.079c0-0.527,0.056-0.979,0.167-1.356
	c0.118-0.397,0.299-0.713,0.543-0.945c0.242-0.231,0.569-0.401,0.982-0.512c0.393-0.106,0.864-0.159,1.416-0.159h1
	c0.503,0,0.944,0.043,1.322,0.13c0.392,0.091,0.719,0.229,0.98,0.416l0,0c0.271,0.193,0.475,0.441,0.609,0.744
	c0.131,0.295,0.197,0.635,0.197,1.022v0.182c0,0.117-0.048,0.225-0.125,0.303l0-0.001c-0.078,0.078-0.185,0.126-0.302,0.126h-0.6
	c-0.116,0-0.222-0.047-0.299-0.124l-0.001-0.001c-0.076-0.075-0.124-0.18-0.126-0.295c-0.004-0.224-0.034-0.412-0.092-0.563
	c-0.05-0.132-0.12-0.233-0.211-0.304l0,0c-0.104-0.08-0.266-0.143-0.485-0.188c-0.241-0.048-0.547-0.072-0.92-0.072h-0.693
	c-0.264,0-0.488,0.006-0.671,0.021c-0.179,0.014-0.32,0.033-0.424,0.06c-0.098,0.024-0.188,0.057-0.271,0.099
	c-0.081,0.041-0.154,0.088-0.218,0.141v0.001c-0.053,0.046-0.1,0.101-0.138,0.165c-0.04,0.064-0.072,0.139-0.095,0.222v0.001
	c-0.026,0.091-0.045,0.226-0.06,0.404c-0.014,0.186-0.022,0.418-0.022,0.698v2.24c0,0.278,0.008,0.511,0.022,0.696
	c0.014,0.176,0.034,0.313,0.06,0.403c0.023,0.084,0.055,0.157,0.095,0.222c0.038,0.063,0.083,0.117,0.134,0.164l0,0
	c0.068,0.057,0.141,0.104,0.222,0.145c0.083,0.043,0.171,0.076,0.263,0.099h0.002c0.097,0.026,0.235,0.046,0.414,0.061
	c0.185,0.014,0.414,0.022,0.687,0.022h0.693c0.246,0,0.452-0.007,0.618-0.02c0.161-0.014,0.286-0.031,0.375-0.052h0.001
	c0.083-0.022,0.16-0.05,0.232-0.086c0.071-0.035,0.136-0.078,0.194-0.126l0.012-0.011c0.041-0.036,0.077-0.081,0.109-0.133
	c0.037-0.063,0.066-0.133,0.09-0.212h0c0.023-0.087,0.041-0.209,0.054-0.371c0.014-0.168,0.021-0.375,0.021-0.621v-0.649H13.63
	c-0.116,0-0.223-0.047-0.3-0.125l-0.001-0.002c-0.078-0.077-0.125-0.184-0.125-0.299v-0.5c0-0.115,0.048-0.223,0.125-0.3
	l0.001-0.001c0.078-0.078,0.184-0.125,0.3-0.125h2.781c0.117,0,0.224,0.047,0.302,0.125c0.078,0.078,0.126,0.184,0.126,0.301v1.605
	c0,0.53-0.056,0.983-0.168,1.36c-0.118,0.398-0.299,0.714-0.544,0.944c-0.241,0.231-0.569,0.401-0.981,0.511
	c-0.392,0.106-0.864,0.158-1.416,0.158h-1c-0.551,0-1.023-0.052-1.416-0.158c-0.413-0.109-0.74-0.279-0.981-0.511
	c-0.245-0.23-0.426-0.546-0.544-0.944c-0.112-0.377-0.168-0.83-0.168-1.36V11.079z M17.313,16.197V8.629
	c0-0.117,0.049-0.224,0.128-0.302c0.078-0.077,0.184-0.124,0.3-0.124h0.579c0.117,0,0.223,0.047,0.3,0.125h0.001
	c0.077,0.077,0.125,0.184,0.125,0.301v7.568c0,0.117-0.048,0.225-0.125,0.302c-0.078,0.078-0.184,0.126-0.302,0.126h-0.579
	c-0.116,0-0.222-0.048-0.3-0.126H17.44C17.362,16.422,17.313,16.314,17.313,16.197z M19.298,11.081c0-0.526,0.052-0.978,0.156-1.354
	c0.109-0.398,0.277-0.712,0.502-0.942c0.227-0.233,0.534-0.405,0.921-0.518c0.368-0.105,0.808-0.16,1.319-0.16h0.92
	c0.506,0,0.94,0.045,1.303,0.136c0.382,0.096,0.687,0.243,0.917,0.442h0.001c0.233,0.203,0.406,0.472,0.52,0.809h0.001
	c0.107,0.318,0.161,0.695,0.161,1.131v0.197c0,0.117-0.048,0.222-0.125,0.3c-0.078,0.078-0.184,0.126-0.301,0.126h-0.6
	c-0.116,0-0.224-0.047-0.301-0.125c-0.078-0.078-0.126-0.184-0.126-0.301v-0.069c0-0.272-0.026-0.496-0.079-0.673
	c-0.045-0.154-0.11-0.269-0.192-0.342c-0.086-0.076-0.225-0.137-0.417-0.181c-0.215-0.049-0.491-0.074-0.825-0.074h-0.606
	c-0.232,0-0.43,0.006-0.594,0.02c-0.157,0.013-0.281,0.032-0.374,0.057l0-0.001c-0.084,0.023-0.164,0.055-0.237,0.095
	c-0.068,0.037-0.129,0.081-0.183,0.132l-0.003,0.003c-0.052,0.047-0.096,0.103-0.133,0.166c-0.039,0.066-0.069,0.143-0.093,0.229h0
	c-0.024,0.091-0.043,0.227-0.056,0.405c-0.014,0.188-0.021,0.424-0.021,0.709v2.239c0,0.282,0.007,0.518,0.021,0.703
	c0.014,0.179,0.032,0.314,0.057,0.407h0c0.022,0.082,0.054,0.157,0.093,0.225c0.037,0.064,0.082,0.12,0.134,0.168l0.002,0.002
	c0.055,0.054,0.116,0.097,0.183,0.136c0.069,0.037,0.144,0.068,0.225,0.093l0,0c0.085,0.023,0.206,0.041,0.366,0.054
	c0.167,0.014,0.371,0.022,0.615,0.022h0.606c0.343,0,0.624-0.026,0.844-0.078c0.192-0.045,0.331-0.108,0.414-0.188
	c0.083-0.08,0.147-0.207,0.193-0.375c0.052-0.195,0.079-0.44,0.079-0.742v-0.119c0-0.027-0.002-0.058-0.003-0.088v-0.004
	c-0.002-0.061,0.006-0.119,0.028-0.171h0c0.021-0.052,0.051-0.097,0.089-0.138l0,0c0.043-0.045,0.092-0.08,0.146-0.102
	c0.052-0.021,0.105-0.03,0.161-0.03h0.588c0.117,0,0.223,0.048,0.301,0.125h0c0.077,0.076,0.125,0.184,0.125,0.3v0.369
	c0,0.463-0.052,0.862-0.155,1.194c-0.109,0.352-0.277,0.632-0.505,0.834h0c-0.224,0.204-0.529,0.353-0.917,0.449
	c-0.366,0.09-0.808,0.136-1.325,0.136h-0.92c-0.512,0-0.951-0.052-1.319-0.16c-0.388-0.112-0.694-0.284-0.921-0.518l0,0
	c-0.226-0.229-0.393-0.542-0.502-0.939h0c-0.104-0.376-0.156-0.828-0.156-1.354V11.081z M30.217,9.483h-0.483
	c-0.271,0-0.5,0.006-0.686,0.021c-0.183,0.014-0.323,0.033-0.419,0.059c-0.094,0.024-0.182,0.057-0.264,0.099
	c-0.079,0.04-0.152,0.089-0.221,0.146l0,0c-0.054,0.046-0.099,0.101-0.138,0.164c-0.041,0.069-0.074,0.149-0.099,0.237h0
	c-0.025,0.095-0.045,0.233-0.061,0.414c-0.015,0.185-0.022,0.413-0.022,0.684v2.23c0,0.268,0.008,0.494,0.022,0.677
	c0.015,0.177,0.035,0.313,0.061,0.407h0c0.026,0.089,0.059,0.169,0.098,0.233c0.038,0.063,0.084,0.119,0.139,0.166l0,0
	c0.067,0.057,0.142,0.104,0.222,0.145c0.082,0.043,0.17,0.076,0.263,0.099h0.001c0.097,0.026,0.235,0.046,0.415,0.061
	c0.186,0.014,0.416,0.022,0.689,0.022h0.483c0.273,0,0.504-0.009,0.689-0.022c0.182-0.015,0.32-0.034,0.418-0.061h0.004
	c0.1-0.025,0.188-0.058,0.268-0.099c0.078-0.039,0.152-0.086,0.217-0.142l0,0c0.053-0.048,0.1-0.104,0.139-0.167
	c0.039-0.064,0.07-0.138,0.094-0.222c0.025-0.091,0.047-0.228,0.061-0.403c0.014-0.186,0.02-0.416,0.02-0.694v-2.242
	c0-0.269-0.006-0.496-0.021-0.681c-0.014-0.179-0.035-0.318-0.061-0.417l0,0c-0.025-0.089-0.059-0.167-0.1-0.235
	c-0.037-0.063-0.086-0.118-0.141-0.166l0,0c-0.063-0.054-0.135-0.101-0.213-0.139c-0.082-0.042-0.17-0.075-0.262-0.098v0.001
	c-0.1-0.026-0.238-0.045-0.416-0.058C30.725,9.489,30.494,9.483,30.217,9.483z M26.37,11.079c0-0.527,0.056-0.979,0.168-1.357
	c0.118-0.396,0.298-0.711,0.542-0.942c0.242-0.232,0.57-0.403,0.984-0.514c0.393-0.106,0.866-0.159,1.42-0.159h0.995
	c1.145,0,1.947,0.221,2.412,0.663c0.238,0.23,0.418,0.546,0.535,0.946c0.109,0.378,0.166,0.833,0.166,1.363v2.669
	c0,0.528-0.057,0.981-0.17,1.358v0.002c-0.117,0.396-0.299,0.712-0.543,0.942c-0.242,0.231-0.57,0.401-0.984,0.511
	c-0.393,0.106-0.865,0.158-1.416,0.158h-0.995c-0.554,0-1.027-0.052-1.42-0.158c-0.414-0.109-0.741-0.279-0.983-0.511
	c-0.245-0.23-0.426-0.546-0.543-0.944c-0.112-0.377-0.167-0.83-0.167-1.358V11.079z M34.34,13.507h0.58
	c0.117,0,0.223,0.048,0.301,0.125c0.076,0.075,0.123,0.182,0.127,0.298v0.005c0,0.229,0.008,0.424,0.023,0.581
	c0.016,0.153,0.037,0.276,0.068,0.369l0,0c0.025,0.082,0.059,0.15,0.1,0.204c0.033,0.046,0.072,0.083,0.119,0.108
	c0.039,0.021,0.098,0.044,0.176,0.063c0.086,0.021,0.189,0.041,0.307,0.054l0,0c0.131,0.016,0.324,0.026,0.582,0.033
	c0.244,0.008,0.584,0.01,1.02,0.01c0.219,0,0.41-0.007,0.574-0.021c0.162-0.014,0.297-0.033,0.406-0.059v0.002
	c0.102-0.026,0.188-0.059,0.258-0.093c0.063-0.032,0.113-0.069,0.15-0.109c0.012-0.014,0.023-0.033,0.035-0.061
	c0.016-0.041,0.031-0.097,0.045-0.162h0.002c0.012-0.073,0.021-0.162,0.027-0.266c0.008-0.104,0.012-0.227,0.012-0.37
	c0-0.282-0.014-0.507-0.039-0.671c-0.023-0.136-0.049-0.223-0.078-0.259l0,0c-0.027-0.034-0.074-0.064-0.145-0.093
	c-0.092-0.035-0.213-0.058-0.359-0.069l-2.426-0.191l0,0c-0.383-0.028-0.715-0.095-0.99-0.193c-0.295-0.106-0.529-0.254-0.697-0.438
	l-0.002-0.004c-0.17-0.186-0.295-0.43-0.377-0.73c-0.076-0.283-0.113-0.617-0.113-1.004c0-0.24,0.012-0.457,0.037-0.653
	c0.025-0.202,0.063-0.38,0.113-0.536c0.055-0.161,0.125-0.31,0.211-0.445h0.002c0.088-0.138,0.191-0.261,0.311-0.368l0.002-0.002
	C34.896,8.391,35.16,8.27,35.494,8.2h0.002c0.158-0.032,0.369-0.055,0.631-0.071c0.266-0.015,0.578-0.022,0.936-0.022h0.281
	c0.402,0,0.754,0.01,1.047,0.03c0.301,0.021,0.539,0.052,0.719,0.094c0.184,0.043,0.354,0.103,0.512,0.179
	c0.158,0.078,0.303,0.171,0.434,0.282l0,0c0.096,0.082,0.18,0.181,0.252,0.295c0.066,0.111,0.123,0.236,0.166,0.375v0.001
	c0.043,0.136,0.072,0.283,0.092,0.442c0.02,0.157,0.029,0.328,0.029,0.512c0,0.014,0,0.056-0.002,0.14
	c0,0.04-0.002,0.072-0.002,0.095l0,0v0.001l-0.002,0.008v0.003l0,0c-0.004,0.114-0.051,0.217-0.127,0.29
	c-0.078,0.075-0.182,0.122-0.297,0.122h-0.586c-0.117,0-0.225-0.048-0.301-0.127c-0.078-0.077-0.125-0.184-0.125-0.3v-0.046
	c0-0.141-0.004-0.262-0.014-0.362c-0.006-0.1-0.018-0.181-0.029-0.242l-0.002-0.003c-0.012-0.056-0.027-0.102-0.045-0.138
	c-0.01-0.026-0.025-0.045-0.037-0.061c-0.031-0.028-0.076-0.055-0.141-0.08c-0.076-0.03-0.174-0.054-0.293-0.073l-0.004-0.001
	c-0.131-0.02-0.322-0.036-0.574-0.047c-0.246-0.01-0.57-0.014-0.973-0.014c-0.393,0-0.705,0.021-0.939,0.063
	c-0.205,0.037-0.338,0.084-0.406,0.141l0,0c-0.061,0.056-0.111,0.149-0.148,0.28c-0.045,0.157-0.066,0.361-0.066,0.611
	c0,0.205,0.016,0.375,0.043,0.51c0.025,0.115,0.059,0.197,0.1,0.25l0,0c0.037,0.047,0.098,0.086,0.182,0.118
	c0.104,0.04,0.238,0.068,0.408,0.081l0,0l2.473,0.207c0.35,0.03,0.652,0.095,0.904,0.194c0.27,0.105,0.484,0.251,0.645,0.437
	c0.158,0.183,0.277,0.42,0.354,0.714c0.072,0.277,0.107,0.604,0.107,0.977c0,0.263-0.01,0.494-0.027,0.694
	c-0.018,0.212-0.045,0.388-0.082,0.534c-0.037,0.146-0.09,0.285-0.156,0.415c-0.064,0.126-0.145,0.243-0.238,0.349l0,0
	c-0.117,0.129-0.25,0.239-0.402,0.328c-0.15,0.088-0.316,0.157-0.502,0.207h-0.002c-0.176,0.047-0.422,0.081-0.732,0.105
	c-0.305,0.021-0.67,0.032-1.1,0.032h-0.391c-0.365,0-0.682-0.009-0.949-0.027c-0.273-0.021-0.494-0.051-0.658-0.092
	c-0.174-0.043-0.33-0.101-0.473-0.174c-0.127-0.064-0.246-0.143-0.354-0.233l-0.006-0.002l-0.041-0.036
	c-0.115-0.102-0.219-0.223-0.307-0.362c-0.084-0.137-0.154-0.285-0.207-0.449l0,0c-0.051-0.157-0.088-0.338-0.115-0.541
	c-0.025-0.2-0.039-0.416-0.039-0.643v-0.236c0-0.117,0.049-0.225,0.127-0.303C34.117,13.555,34.223,13.507,34.34,13.507z"/>
</svg>
